<svg width="168" height="26" viewBox="0 0 168 26" fill="none" xmlns="http://www.w3.org/2000/svg">
<path d="M4.99555 1.88513C7.37685 1.88513 8.59339 2.50634 9.39578 3.17932C10.7153 4.29232 11.1036 5.76716 11.1036 7.06134C11.1036 8.74378 10.4311 10.2192 9.08518 11.1246C8.64515 11.4352 8.02395 11.7199 7.19567 11.8752L12.5789 19.148H8.38579L3.77849 12.2117H3.36488V19.148H0V1.88513H4.99555ZM3.36541 9.8309H4.32258C4.96967 9.8309 7.63516 9.75325 7.63516 7.21717C7.63516 4.65469 4.99503 4.6288 4.37382 4.6288H3.36488V9.8309H3.36541Z" fill="#001665"/>
<path d="M25.392 16.0166C25.0555 16.8448 23.7872 19.5109 19.8788 19.5109C18.0669 19.5109 16.6956 18.9932 15.5826 17.932C14.3397 16.7672 13.8225 15.3177 13.8225 13.5581C13.8225 11.3321 14.7284 9.96031 15.5303 9.15792C16.8504 7.86373 18.4029 7.57901 19.7488 7.57901C22.0266 7.57901 23.3467 8.48494 24.1226 9.41675C25.3133 10.8404 25.4686 12.5999 25.4686 13.8165V14.0753H17.0833C17.0833 14.7483 17.2645 15.473 17.6264 15.9648C17.9628 16.4307 18.6617 17.026 19.8782 17.026C21.0689 17.026 21.9748 16.4566 22.4925 15.5507L25.392 16.0166ZM22.493 12.0564C22.2342 10.5292 20.9918 9.80448 19.827 9.80448C18.6622 9.80448 17.4457 10.5551 17.1869 12.0564H22.493Z" fill="#001665"/>
<path d="M36.7543 7.94138H39.9122V19.148H36.7543V17.6985C35.6155 19.3286 34.1142 19.5103 33.3118 19.5103C29.8693 19.5103 27.592 16.8184 27.592 13.5317C27.592 10.2191 29.8439 7.57901 33.1565 7.57901C34.0107 7.57901 35.6931 7.73431 36.7543 9.39087V7.94138ZM30.8534 13.5317C30.8534 15.3177 32.147 16.7154 33.9589 16.7154C35.7708 16.7154 37.0649 15.3177 37.0649 13.5317C37.0649 11.7463 35.7708 10.3739 33.9589 10.3739C32.147 10.3739 30.8534 11.7463 30.8534 13.5317Z" fill="#001665"/>
<path d="M51.508 0.280334H54.6658V19.148H51.508V17.6985C50.3691 19.3286 48.8679 19.5103 48.0655 19.5103C44.6229 19.5103 42.3457 16.8184 42.3457 13.5317C42.3457 10.2191 44.5976 7.57901 47.9102 7.57901C48.7643 7.57901 50.4468 7.73431 51.508 9.39087V0.280334ZM45.607 13.5317C45.607 15.3177 46.9007 16.7154 48.7126 16.7154C50.5244 16.7154 51.8186 15.3177 51.8186 13.5317C51.8186 11.7463 50.5244 10.3739 48.7126 10.3739C46.9007 10.3739 45.607 11.7463 45.607 13.5317Z" fill="#001665"/>
<path d="M61.5515 17.466L56.2195 7.94135H59.895L63.3629 14.3082L66.4684 7.94135H70.0403L61.0074 25.0753H57.4355L61.5515 17.466Z" fill="#001665"/>
<path d="M93.9044 10.374C92.0925 10.374 90.7466 11.7976 90.7466 13.5577C90.7466 15.2655 92.0666 16.7155 93.9044 16.7155C95.7421 16.7155 97.0622 15.266 97.0622 13.5577C97.0617 11.7976 95.7163 10.374 93.9044 10.374Z" fill="#001665"/>
<path d="M83.1157 22.7606L89.1054 25.4609C89.1054 25.4609 91.4746 24.3928 94.9969 22.8044C93.0762 22.2202 91.052 21.9101 88.9781 21.9101C86.9608 21.9107 84.9904 22.2059 83.1157 22.7606Z" fill="#001665"/>
<path d="M88.978 4.19458C87.3431 4.19458 85.7521 4.38263 84.2244 4.73603V7.94138H86.3986V10.6333H84.2244V19.1485H81.0666V10.6333H79.8242V7.94138H81.0666V5.73915C76.0156 7.79453 71.9434 11.7558 69.7449 16.7329L81.5288 22.0459C83.6719 21.3296 86.6416 20.8473 88.978 20.8473C91.3704 20.8473 94.3603 21.3597 96.5461 22.1072C100.063 20.5214 103.869 18.8057 108.254 16.8285C105.014 9.39351 97.6047 4.19458 88.978 4.19458ZM98.4335 17.9314C97.4763 18.8115 96.0263 19.5103 93.9044 19.5103C91.7825 19.5103 90.3324 18.8115 89.3753 17.9314C88.2628 16.922 87.4858 15.3689 87.4858 13.5576C87.4858 11.7199 88.2628 10.1674 89.3753 9.15738C90.3324 8.27734 91.7825 7.57848 93.9044 7.57848C96.0263 7.57848 97.4763 8.27734 98.4335 9.15738C99.5465 10.1668 100.323 11.7199 100.323 13.5576C100.323 15.3695 99.5465 16.922 98.4335 17.9314Z" fill="#001665"/>
<path d="M115.503 19.1479H112.967L106.962 1.8851H110.534L114.391 13.6352L118.61 1.7298H120.473L124.459 13.6352L128.6 1.8851H132.172L125.778 19.1479H123.242L119.463 8.2002L115.503 19.1479Z" fill="#001665"/>
<path d="M142.506 9.15792C143.618 10.1674 144.395 11.7204 144.395 13.5581C144.395 15.37 143.618 16.9225 142.506 17.932C141.548 18.812 140.098 19.5109 137.976 19.5109C135.855 19.5109 134.405 18.812 133.447 17.932C132.334 16.9225 131.558 15.3695 131.558 13.5581C131.558 11.7204 132.334 10.1679 133.447 9.15792C134.405 8.27787 135.855 7.57901 137.976 7.57901C140.098 7.57901 141.548 8.27787 142.506 9.15792ZM141.134 13.5576C141.134 11.7975 139.788 10.3739 137.976 10.3739C136.164 10.3739 134.818 11.7975 134.818 13.5576C134.818 15.2654 136.138 16.7154 137.976 16.7154C139.814 16.7154 141.134 15.2659 141.134 13.5576Z" fill="#001665"/>
<path d="M146.829 7.94138H149.986V9.62382C150.478 8.66613 151.151 8.20022 151.384 8.0708C151.876 7.7602 152.497 7.57901 153.248 7.57901C153.791 7.57901 154.231 7.70843 154.594 7.83785L154.18 10.7881C153.765 10.5033 153.351 10.3739 152.704 10.3739C152.109 10.3739 151.229 10.5033 150.608 11.2799C150.012 12.0299 149.986 12.9876 149.986 13.7642V19.1474H146.829V7.94138Z" fill="#001665"/>
<path d="M159.304 0.280334V12.0305L163.497 7.94138H167.586L162.332 12.8588L168 19.148H163.807L159.64 14.36L159.303 14.6706V19.148H156.145V0.280334H159.304Z" fill="#001665"/>
</svg>
