<svg width="32" height="32" viewBox="0 0 32 32" fill="none" xmlns="http://www.w3.org/2000/svg">
<path d="M16 1C7.71576 1 1 7.71576 1 16C1 24.2842 7.71576 31 16 31C24.2842 31 31 24.2842 31 16C31 7.71576 24.2842 1 16 1ZM16 30.6907C7.88651 30.6907 1.30926 24.1135 1.30926 16C1.30926 7.88651 7.88651 1.30926 16 1.30926C24.1135 1.30926 30.6907 7.88651 30.6907 16C30.6907 24.1135 24.1135 30.6907 16 30.6907Z" fill="#019147" stroke="#019147" stroke-width="0.2"/>
<path d="M16.0111 16.3913C15.753 16.3913 15.5008 16.3148 15.2862 16.1714C15.0716 16.028 14.9044 15.8243 14.8056 15.5858C14.7069 15.3474 14.681 15.0851 14.7314 14.832C14.7817 14.5789 14.906 14.3464 15.0885 14.1639C15.2709 13.9814 15.5034 13.8572 15.7565 13.8068C16.0096 13.7565 16.272 13.7823 16.5104 13.8811C16.7488 13.9798 16.9526 14.1471 17.096 14.3616C17.2393 14.5762 17.3159 14.8285 17.3159 15.0865C17.3154 15.4324 17.1777 15.764 16.9332 16.0086C16.6886 16.2532 16.357 16.3908 16.0111 16.3913V16.3913ZM16.0111 14.6114C15.9172 14.6114 15.8254 14.6393 15.7474 14.6914C15.6693 14.7436 15.6085 14.8177 15.5726 14.9044C15.5367 14.9912 15.5273 15.0866 15.5456 15.1787C15.5639 15.2707 15.6091 15.3553 15.6755 15.4217C15.7418 15.4881 15.8264 15.5333 15.9185 15.5516C16.0106 15.5699 16.106 15.5605 16.1927 15.5246C16.2794 15.4887 16.3536 15.4278 16.4057 15.3498C16.4579 15.2717 16.4857 15.1799 16.4857 15.0861C16.4856 14.9602 16.4355 14.8396 16.3465 14.7506C16.2576 14.6616 16.1369 14.6116 16.0111 14.6114V14.6114Z" fill="#915531"/>
<path d="M20.0544 19.3618C19.7258 19.3622 19.409 19.2387 19.1674 19.0159C18.9257 18.7931 18.777 18.4874 18.7507 18.1597C18.7245 17.8321 18.8228 17.5066 19.0259 17.2482C19.2291 16.9898 19.5222 16.8175 19.8467 16.7656C20.1713 16.7138 20.5035 16.7862 20.777 16.9684C21.0506 17.1506 21.2454 17.4292 21.3226 17.7487C21.3998 18.0682 21.3537 18.4051 21.1936 18.6921C21.0334 18.9791 20.7709 19.1952 20.4585 19.2973C20.328 19.3399 20.1917 19.3617 20.0544 19.3618V19.3618ZM20.0544 17.5816C19.9381 17.5814 19.8257 17.6239 19.7386 17.701C19.6515 17.7782 19.5957 17.8846 19.5819 18.0001C19.5681 18.1157 19.5972 18.2322 19.6636 18.3278C19.73 18.4233 19.8292 18.4911 19.9424 18.5184C20.0555 18.5456 20.1747 18.5304 20.2773 18.4755C20.3799 18.4207 20.4589 18.3301 20.4992 18.221C20.5394 18.1118 20.5382 17.9917 20.4958 17.8833C20.4534 17.775 20.3726 17.686 20.2689 17.6332C20.2023 17.5993 20.1287 17.5816 20.054 17.5816H20.0544Z" fill="#915531"/>
<path d="M11.8604 19.3616C11.6023 19.3616 11.3501 19.2851 11.1355 19.1417C10.9209 18.9984 10.7537 18.7946 10.6549 18.5562C10.5561 18.3179 10.5303 18.0555 10.5806 17.8024C10.6309 17.5493 10.7551 17.3168 10.9375 17.1343C11.12 16.9518 11.3524 16.8275 11.6055 16.7771C11.8586 16.7267 12.1209 16.7524 12.3594 16.8511C12.5978 16.9498 12.8016 17.1169 12.9451 17.3315C13.0885 17.546 13.1651 17.7982 13.1653 18.0562C13.1649 18.4022 13.0273 18.7339 12.7827 18.9786C12.5381 19.2234 12.2064 19.3611 11.8604 19.3616V19.3616ZM11.8604 17.5816C11.7665 17.5816 11.6748 17.6095 11.5967 17.6616C11.5187 17.7138 11.4579 17.7879 11.422 17.8747C11.386 17.9614 11.3767 18.0568 11.395 18.1489C11.4133 18.241 11.4585 18.3255 11.5249 18.3919C11.5913 18.4583 11.6759 18.5034 11.7679 18.5218C11.86 18.5401 11.9555 18.5307 12.0422 18.4947C12.1289 18.4588 12.203 18.398 12.2552 18.3199C12.3073 18.2419 12.3352 18.1501 12.3352 18.0562C12.335 17.9304 12.2849 17.8097 12.1959 17.7207C12.1069 17.6317 11.9863 17.5817 11.8604 17.5816V17.5816Z" fill="#915531"/>
<path d="M16.0111 25.5288C15.901 25.5288 15.7954 25.4851 15.7175 25.4072C15.6396 25.3293 15.5958 25.2237 15.5958 25.1135V16.095C15.5958 15.9849 15.6396 15.8792 15.7175 15.8013C15.7954 15.7234 15.901 15.6797 16.0111 15.6797C16.1213 15.6797 16.2269 15.7234 16.3048 15.8013C16.3827 15.8792 16.4265 15.9849 16.4265 16.095V25.1135C16.4265 25.2237 16.3827 25.3293 16.3048 25.4072C16.2269 25.4851 16.1213 25.5288 16.0111 25.5288Z" fill="#915531"/>
<path d="M9.78377 18.0561C9.78377 16.9111 10.7153 15.9794 11.8603 15.9794C12.1273 15.9795 12.3918 16.0314 12.639 16.1323C12.4972 15.3004 12.12 14.5229 11.5004 13.9034C10.3017 12.7045 8.51163 12.4111 6.88004 12.9813C6.30994 14.6125 6.60336 16.4028 7.80223 17.6016C8.38683 18.1863 9.11251 18.5538 9.89162 18.712C9.82046 18.5006 9.78404 18.2791 9.78377 18.0561V18.0561Z" fill="#82C241"/>
<path d="M25.1199 12.9813C23.4886 12.4111 21.6982 12.7045 20.4994 13.9034C19.8882 14.5145 19.5139 15.2796 19.3683 16.0988C19.3822 16.0939 19.3955 16.0877 19.4095 16.083C19.7764 15.9629 20.1696 15.9476 20.5447 16.0388C20.9199 16.13 21.2621 16.3242 21.5328 16.5994C21.8036 16.8746 21.9921 17.2199 22.0772 17.5965C22.1622 17.9731 22.1405 18.3659 22.0143 18.7308C22.829 18.5836 23.5895 18.2097 24.1977 17.6016C25.3966 16.4028 25.69 14.6125 25.1199 12.9813Z" fill="#82C241"/>
<path d="M16.0111 13.0093C16.9374 13.0093 17.7235 13.6191 17.9903 14.4581C18.7421 13.5575 19.1891 12.4409 19.1891 11.2294C19.1891 9.17097 17.904 7.38179 16.0141 6.47119C14.1242 7.38212 12.8391 9.17097 12.8391 11.2294C12.8391 12.4386 13.2844 13.5535 14.0338 14.4533C14.3018 13.6168 15.0864 13.0093 16.0111 13.0093Z" fill="#019147"/>
<path d="M17.3785 24.6979C17.2683 24.6979 17.1627 24.6542 17.0848 24.5763C17.0069 24.4984 16.9631 24.3927 16.9631 24.2826V20.6633C16.9632 20.5532 17.0069 20.4476 17.0848 20.3697L18.9241 18.5303C18.9626 18.4916 19.0084 18.4608 19.0589 18.4397C19.1093 18.4187 19.1634 18.4078 19.2181 18.4077C19.2728 18.4076 19.3269 18.4183 19.3774 18.4392C19.4279 18.4601 19.4738 18.4907 19.5125 18.5294C19.5511 18.568 19.5818 18.6139 19.6026 18.6645C19.6235 18.715 19.6342 18.7691 19.6341 18.8238C19.634 18.8784 19.6231 18.9325 19.602 18.983C19.581 19.0334 19.5502 19.0792 19.5114 19.1177L17.7939 20.8352V24.2824C17.7939 24.3369 17.7832 24.391 17.7623 24.4414C17.7414 24.4918 17.7108 24.5376 17.6723 24.5762C17.6337 24.6148 17.5879 24.6454 17.5375 24.6663C17.4871 24.6872 17.433 24.6979 17.3785 24.6979V24.6979Z" fill="#915531"/>
<path d="M14.5304 24.6979C14.4203 24.6979 14.3147 24.6541 14.2368 24.5762C14.1589 24.4983 14.1151 24.3927 14.1151 24.2826V20.8354L12.3977 19.118C12.3591 19.0794 12.3285 19.0336 12.3076 18.9832C12.2867 18.9328 12.276 18.8788 12.276 18.8243C12.276 18.7697 12.2867 18.7157 12.3076 18.6653C12.3285 18.6149 12.3591 18.5692 12.3977 18.5306C12.4362 18.492 12.482 18.4614 12.5324 18.4406C12.5828 18.4197 12.6368 18.4089 12.6914 18.4089C12.7459 18.4089 12.7999 18.4197 12.8503 18.4406C12.9007 18.4614 12.9465 18.492 12.9851 18.5306L14.8244 20.3699C14.863 20.4085 14.8936 20.4543 14.9144 20.5047C14.9353 20.555 14.946 20.609 14.946 20.6636V24.2828C14.946 24.3373 14.9352 24.3913 14.9143 24.4417C14.8934 24.4921 14.8628 24.5378 14.8242 24.5764C14.7856 24.6149 14.7398 24.6455 14.6894 24.6663C14.639 24.6872 14.585 24.6979 14.5304 24.6979V24.6979Z" fill="#915531"/>
</svg>
